HIERARCHY
ROOT Hips
{
  OFFSET 196.326 95.9168 97.7182
  CHANNELS 6 Xposition Yposition Zposition Zrotation Xrotation Yrotation
  JOINT LeftUpLeg
  {
    OFFSET 8.64259 1.95398 -2.38835
    CHANNELS 3 Zrotation Xrotation Yrotation
    JOINT LeftLeg
    {
      OFFSET 43.7702 0 0
      CHANNELS 3 Zrotation Xrotation Yrotation
      JOINT LeftFoot
      {
        OFFSET 40.6238 0 0
        CHANNELS 3 Zrotation Xrotation Yrotation
        JOINT LeftToeBase
        {
          OFFSET 12.7242 0 0
          CHANNELS 3 Zrotation Xrotation Yrotation
          End Site
          {
            OFFSET 0 0 0
          }
        }
      }
    }
  }
  JOINT RightUpLeg
  {
    OFFSET -8.2249 1.95398 -2.59336
    CHANNELS 3 Zrotation Xrotation Yrotation
    JOINT RightLeg
    {
      OFFSET 43.5653 0 0
      CHANNELS 3 Zrotation Xrotation Yrotation
      JOINT RightFoot
      {
        OFFSET 40.6238 0 0
        CHANNELS 3 Zrotation Xrotation Yrotation
        JOINT RightToeBase
        {
          OFFSET 12.7242 0 0
          CHANNELS 3 Zrotation Xrotation Yrotation
          End Site
          {
            OFFSET 0 0 0
          }
        }
      }
    }
  }
  JOINT Spine
  {
    OFFSET 0.165834 0.87714 6.61349
    CHANNELS 3 Zrotation Xrotation Yrotation
    JOINT Spine1
    {
      OFFSET 7.38963 1.71661e-005 0
      CHANNELS 3 Zrotation Xrotation Yrotation
      JOINT Spine2
      {
        OFFSET 11.9445 1.14441e-005 0
        CHANNELS 3 Zrotation Xrotation Yrotation
        JOINT Spine3
        {
          OFFSET 14.7254 4.19617e-005 0
          CHANNELS 3 Zrotation Xrotation Yrotation
          JOINT Spine4
          {
            OFFSET 10.9679 0 0
            CHANNELS 3 Zrotation Xrotation Yrotation
            JOINT RightShoulder
            {
              OFFSET 2.46616 -1.6653 3.69651
              CHANNELS 3 Zrotation Xrotation Yrotation
              JOINT RightArm
              {
                OFFSET 13.0012 0 0
                CHANNELS 3 Zrotation Xrotation Yrotation
                JOINT RightForeArm
                {
                  OFFSET 28.7848 1.52588e-005 0
                  CHANNELS 3 Zrotation Xrotation Yrotation
                  JOINT RightHand
                  {
                    OFFSET 26.5688 1.52588e-005 0
                    CHANNELS 3 Zrotation Xrotation Yrotation
                    End Site
                    {
                      OFFSET 0 0 0
                    }
                  }
                }
              }
            }
            JOINT LeftShoulder
            {
              OFFSET 2.38034 -1.29275 -3.75231
              CHANNELS 3 Zrotation Xrotation Yrotation
              JOINT LeftArm
              {
                OFFSET 16.3182 6.10351e-005 0
                CHANNELS 3 Zrotation Xrotation Yrotation
                JOINT LeftForeArm
                {
                  OFFSET 27.0901 0 0
                  CHANNELS 3 Zrotation Xrotation Yrotation
                  JOINT LeftHand
                  {
                    OFFSET 24.5451 1.52588e-005 0
                    CHANNELS 3 Zrotation Xrotation Yrotation
                    End Site
                    {
                      OFFSET 0 0 0
                    }
                  }
                }
              }
            }
            JOINT Neck
            {
              OFFSET 5.0226 -0.0266342 0
              CHANNELS 3 Zrotation Xrotation Yrotation
              JOINT Head
              {
                OFFSET 6.69363 2.86102e-005 0
                CHANNELS 3 Zrotation Xrotation Yrotation
                End Site
                {
                  OFFSET 0 0 0
                }
              }
            }
          }
        }
      }
    }
  }
}
MOTION
Frames:	10
Frame Time:	0.0416667
-67.0267 92.6863 -82.9238 91.3718 -36.12 90.1991 -174.177 0.782517 90.3919 -39.6769 24.4912 1.01046 51.3322 -1.32366 9.89598 70.6017 39.1729 -10.1254 178.086 27.914 90.0049 -29.9345 14.1122 1.47696 60.5355 -0.37832 -0.0638145 36.1404 0.384076 18.4011 -0.897227 7.41612 -90.3483 12.0363 -1.94807 -0.480973 0.3667 -1.96734 -0.394747 -22.1769 -1.71344 -1.04435 -2.16429 -1.71344 -1.04435 80.6473 -54.0319 -113.424 28.1444 -6.68417 20.1302 -5.54381 -16.0142 -31.4652 -1.30191 -0.255967 5.92781 -101.107 -41.3819 58.8144 -23.4657 6.31262 4.24185 10.5745 2.7744 -62.2132 18.8013 1.98268 6.69565 -13.5673 1.42514 4.6463 -6.75537 1.336 3.12959 
-62.3754 93.0231 -77.6728 91.9085 -35.8722 91.7729 -173.053 10.2715 94.0407 -54.1982 17.5233 0.533998 43.2855 -7.42576 6.75356 59.32 31.5795 -3.67076 176.978 25.1513 92.0136 -35.245 15.3459 2.86753 66.7945 -1.31413 -0.693844 27.2683 -1.7116 21.1024 -0.568056 7.5941 -90.5398 11.6793 -1.38306 -0.932292 0.00885257 -1.42274 -0.870516 -22.5274 -1.03895 -1.30485 -2.51478 -1.03895 -1.30485 80.0623 -53.2307 -114.553 26.9193 -6.25774 16.982 -5.21906 -13.9366 -32.3531 -4.21026 -0.434326 4.59849 -102.355 -41.7641 57.0489 -25.6468 6.54417 5.09254 9.36409 3.15131 -58.1452 17.2593 1.58221 5.26053 -13.688 0.206293 3.61955 -4.36956 0.183905 2.47843 
-58.2451 94.273 -72.8939 91.4196 -36.2096 90.3375 -170.67 19.7689 92.0571 -55.4636 13.6803 -1.02792 47.7553 -3.43355 10.462 55.0131 26.5756 -5.86114 176.87 21.2547 91.9844 -34.7716 15.6078 2.43654 68.6817 -1.63322 -0.865758 28.9628 -1.29568 20.9293 -0.158323 7.76772 -90.4029 11.3362 -0.50273 -0.752059 -0.334852 -0.535342 -0.72921 -22.8685 -0.253479 -0.868374 -2.85588 -0.253481 -0.868374 78.9218 -52.7497 -116.369 23.8319 -6.45799 13.1541 -5.18747 -11.7586 -37.2657 -5.80878 -0.536984 4.43038 -102.97 -41.9296 56.1763 -27.0133 8.05825 5.40478 10.1333 4.98287 -55.7883 16.1754 1.45357 5.06538 -14.1399 -1.69515 2.10657 -1.00722 -1.65165 1.85802 
-54.2965 95.0309 -68.6046 89.8293 -37.8614 89.2131 -169.788 25.1952 90.1002 -42.0438 9.14022 -2.29488 54.4747 1.01704 9.79664 52.552 25.3742 -2.06788 177.384 18.1109 92.9862 -33.198 15.3066 1.79538 70.3573 -2.525 -1.32205 30.4275 -0.856279 19.4929 0.319565 7.87396 -90.3868 11.127 0.456581 -0.814272 -0.544139 0.420297 -0.833583 -23.0787 0.680196 -0.639411 -3.06605 0.680185 -0.639418 78.9395 -51.316 -116.916 19.5701 -6.89856 7.66686 -5.9757 -11.2603 -41.3156 -7.44588 -0.62258 3.8792 -102.325 -42.0256 57.2169 -29.3301 8.41688 6.13195 10.5987 5.54087 -55.6282 15.9752 1.4945 5.42099 -14.1029 -3.4029 1.86449 1.53549 -3.41609 0.687854 
-50.0926 94.8642 -64.7899 87.8056 -38.2505 88.1259 -171.482 25.8427 89.5683 -16.9139 5.01286 -2.70819 53.2857 -0.375826 9.30539 54.9531 26.819 -4.98579 177.406 16.0758 93.771 -33.594 15.6359 1.54035 73.7839 -4.07115 -2.01396 32.4723 -0.323949 17.6634 0.609546 7.92752 -90.3915 11.0226 1.032 -0.878143 -0.648269 0.99235 -0.922721 -23.1856 1.24819 -0.527369 -3.17292 1.2482 -0.527374 78.7096 -50.3861 -117.633 14.8362 -5.54923 2.97064 -6.81121 -10.3151 -44.7747 -9.7451 -0.677001 2.55789 -101.946 -41.9594 57.7726 -30.3981 8.58146 7.23657 10.2585 4.87236 -56.5073 15.3391 1.40618 5.2126 -13.3241 -4.63756 1.66954 2.95978 -4.74085 -0.287963 
-45.4837 93.4946 -61.3077 86.4338 -38.7629 88.1465 -173.31 28.6139 90.5474 -5.27144 5.11822 -2.1901 45.6872 -9.29642 1.80124 50.1244 21.6612 -6.8682 177.741 15.5215 95.372 -37.7465 17.1136 0.682753 76.8762 -5.75074 -2.67741 39.1548 1.15251 17.4097 0.842202 8.05228 -90.4448 10.7758 1.47193 -1.02125 -0.894782 1.42554 -1.08505 -23.4355 1.71078 -0.531582 -3.42288 1.71078 -0.531578 78.6913 -49.1627 -118.176 11.5179 -3.2044 -0.923474 -6.81311 -8.28512 -47.306 -11.4321 -0.689536 1.69254 -102.139 -41.9187 57.4552 -29.6889 8.79385 7.44329 11.2867 4.89807 -58.4296 13.832 1.28813 5.29493 -10.9221 -5.29551 1.68036 3.16487 -5.48143 -0.930199 
-41.6001 91.4911 -58.0385 87.3219 -37.1359 89.1884 -170.692 30.5014 89.2201 -10.7055 7.51989 -4.81103 46.8948 -6.70987 5.97082 18.5658 -5.94944 -21.3096 175.265 18.4135 95.6612 -50.3548 16.4469 1.2012 72.829 -5.45741 -2.70697 50.5731 3.48792 16.3826 0.726607 8.42484 -90.4098 10.029 1.26172 -0.917715 -1.64174 1.22011 -0.972358 -24.1808 1.47919 -0.49604 -4.16821 1.47917 -0.496044 76.4612 -49.6734 -121.227 6.13551 -1.06831 -4.39679 -5.64479 -7.58964 -46.8903 -9.45193 -0.509467 0.657816 -102.259 -40.9901 56.8304 -27.7906 9.74967 5.26463 9.81353 3.89545 -58.802 16.3886 1.52593 5.39181 -9.47447 -5.56936 0.351918 4.5865 -5.73122 -1.21487 
-39.0399 89.0106 -55.7849 85.5086 -37.9809 85.4494 -166.925 38.5887 85.4743 -28.587 7.90737 -6.18087 55.3197 0.192251 11.7204 15.6133 -6.11687 -29.9331 172.703 34.7847 93.3133 -71.9314 9.21134 -1.52749 57.3175 -3.06431 -1.8677 46.7718 2.90118 18.5692 0.812012 8.77823 -90.0215 9.31774 1.60967 -0.161223 -2.35226 1.60103 -0.231929 -24.8951 1.58368 0.330129 -4.88243 1.58368 0.330127 76.0891 -48.4097 -122.356 4.04872 1.45702 -7.26793 -5.46312 -7.13232 -46.3604 -8.82956 -0.493004 0.841186 -102.84 -39.761 55.3223 -23.5074 10.9622 0.191963 9.39247 3.24905 -60.4123 17.7521 1.68329 5.60077 -6.6107 -6.32854 -0.0152177 5.35045 -6.45955 -1.21057 
-37.6337 87.6254 -54.6235 82.8038 -36.6372 84.3749 -162.956 43.526 83.6745 -35.7333 10.5398 -7.10399 57.1785 3.867 14.1087 22.5923 -1.13445 -31.8429 170.529 47.4297 93.6215 -73.0423 13.0132 -1.17543 63.3829 -4.79047 -2.71771 47.4988 2.80818 17.0963 0.920865 9.1728 -90.1514 8.53396 1.77064 -0.414254 -3.13585 1.7507 -0.491801 -25.6809 1.81326 0.137224 -5.66826 1.81326 0.137232 76.5337 -45.7822 -122.951 3.00773 4.52063 -9.90224 -4.27443 -6.44202 -43.6337 -8.79487 -0.453341 0.394878 -104.427 -39.1634 52.5316 -15.4356 12.4241 -9.53816 9.34346 3.74428 -60.2721 20.5903 1.92223 5.51584 -3.6705 -7.59538 1.5737 4.14601 -7.93495 -2.09171 
-36.5107 85.8967 -53.5987 80.1477 -34.7198 84.592 -159.018 49.0953 81.8957 -43.3909 12.79 -7.13608 60.2907 8.08124 15.2301 24.6709 0.443591 -33.9818 171.931 53.4185 91.6962 -59.377 14.0016 0.78435 63.8312 -3.79991 -2.08031 53.1573 3.40023 11.8886 0.987613 9.5183 -90.4689 7.84431 1.76704 -1.0208 -3.82589 1.72041 -1.0976 -26.3698 1.99212 -0.442379 -6.35718 1.99211 -0.44238 76.0076 -44.0945 -124.594 -0.292525 5.64023 -11.2962 -2.57157 -5.01294 -40.9966 -7.80392 -0.287118 -1.521 -105.044 -38.4624 51.1855 -9.14308 11.193 -18.9615 9.05021 3.00683 -61.4491 17.4299 1.65176 5.58232 -1.91198 -8.4809 3.06047 3.66806 -9.10421 -3.28252 
